<svg
  width="260"
  height="90"
  viewBox="0 28 260 74"
  preserveAspectRatio="xMidYMid meet"
  xmlns="http://www.w3.org/2000/svg"
>
  <g fill="none" stroke="#000" stroke-width="5" stroke-linecap="round" stroke-linejoin="round">
    <!-- 连笔 sing，首字母明确是 s -->
    <path d="M70 62
             C66 48, 52 38, 36 42
             C24 45, 18 57, 28 63
             C35 67, 49 64, 56 66
             C66 69, 63 79, 52 82
             C38 86, 24 79, 22 70
             C20 62, 30 58, 42 56
             C58 53, 74 50, 90 46
             C94 45, 96 47, 96 51
             L96 71
             C96 75, 101 75, 103 70
             C107 58, 116 47, 127 47
             C138 47, 144 55, 145 67
             C146 74, 148 75, 154 71
             C161 66, 166 52, 179 49
             C191 47, 200 55, 198 66
             C196 76, 184 81, 173 76
             C164 71, 164 56, 174 50
             C185 44, 200 46, 205 57
             C209 66, 207 76, 205 85
             C203 93, 187 96, 174 90" />

    <!-- i 的点 -->
    <path d="M96 36 L96 36" />
  </g>
 </svg>