<svg width="100" height="50" xmlns="http://www.w3.org/2000/svg">
  <g>
   <title>Layer 1</title>
   <polyline stroke-linecap="round" id="svg_25" points="-92.5,44 -92.5,43 " stroke="#000" fill="none"/>
   <polyline stroke-linecap="round" id="svg_41" points="-65.5,27 -65.5,27 " stroke="#000" fill="none"/>
   <polyline stroke-linecap="round" id="svg_53" points="81.25,-29.5 80.75,-29.5 " stroke="#000" fill="none"/>
   <path d="m2.75,-3c0,0 0.74313,-0.08813 1,1c0.11488,0.48662 0.5,0.5 0.5,0.5l0,0" id="svg_77" stroke="#000" fill="none"/>
   <path d="m3.875,1.75c0,0 0.25646,-0.08009 0.75,0c0.78036,0.12664 1.55292,0.42853 2.25,1c0.82025,0.67245 1.5,1.25 2.25,2c0.75,0.75 1.37825,1.3985 1.75,2c0.41563,0.6725 0.5,1.25 0.75,1.75c0.25,0.5 0.5,1.25 0.75,2c0.25,0.75 0.62406,1.72695 0.75,2.75c0.09164,0.74438 0.25,1.75 0.25,2.75c0,0.75 0.25,1.5 0.25,2.5c0,1 0,1.75 0,2.5c0,0.75 0,1.5 0,2.25c0,0.5 0,1.25 0,1.75c0,0.5 0,1.25 0,1.75c0,0.75 0.08009,1.25646 0,1.75c-0.12664,0.78036 -0.25,1.25 -0.25,1.5c0,0.75 -0.16991,1.25646 -0.25,1.75c-0.12664,0.78036 -0.25,1.25 -0.5,2c-0.25,0.75 -0.19746,1.51961 -0.5,2.25c-0.21393,0.51646 -0.38512,1.01337 -0.5,1.5c-0.12844,0.54406 -0.19256,1.00669 -0.25,1.25c-0.12844,0.54406 -0.3647,0.92336 -0.5,1.25c-0.19134,0.46194 -0.1147,0.67336 -0.25,1c-0.09567,0.23097 -0.1147,0.42336 -0.25,0.75c-0.09567,0.23097 0,0.75 -0.25,1c0,0 0,0.25 0,0.5c0,0.25 -0.25,0.25 -0.25,0.5c0,0 0,0.25 0,0.25c-0.25,0.25 -0.25,0.5 -0.25,0.5c-0.25,0.25 -0.32322,0.32322 -0.5,0.5c-0.17678,0.17678 0,0.25 -0.25,0.5c0,0 -0.07322,0.07322 -0.25,0.25c-0.17678,0.17678 -0.17336,0.3647 -0.5,0.5c-0.23097,0.09567 -0.26903,0.15433 -0.5,0.25c-0.32664,0.1353 -0.26903,0.15433 -0.5,0.25c-0.32664,0.1353 -0.5,0.25 -0.75,0.25c-0.25,0 -0.25,0.25 -0.5,0.25c-0.25,0 -0.5,0 -0.5,0c-0.25,0 -0.25,0 -0.25,0c0,0 -0.25,-0.25 -0.25,-0.5c0,-0.25 -0.3647,-0.42336 -0.5,-0.75c-0.09567,-0.23097 0,-0.75 0,-1.25c0,-0.75 0,-1.75 0,-2.75c0,-1 0,-1.75 0,-2.75c0,-1 0.14238,-2.28325 0.5,-3.25c0.3879,-1.04859 0.88534,-1.92567 1.25,-2.75c0.417,-0.94266 1.1121,-1.95141 1.5,-3c0.35762,-0.96675 0.83655,-1.67636 1.25,-2.25c0.32686,-0.4535 0.6147,-0.67336 0.75,-1c0.09567,-0.23097 0.25,-0.5 0.5,-0.75c0.25,-0.25 0.25,-0.5 0.5,-0.5c0,0 0,0 0.25,-0.25c0,0 0,0 0.25,0c0,0 0,-0.25 0.25,-0.25c0,0 0,-0.25 0.25,-0.25c0,0 0.32322,-0.07322 0.5,-0.25c0.17678,-0.17678 0.25,-0.25 0.5,-0.5c0,0 0.17336,-0.1147 0.5,-0.25c0.23097,-0.09567 0.25,-0.25 0.5,-0.25c0.25,0 0.25,-0.25 0.5,-0.25c0,0 0.25,-0.25 0.25,-0.25c0,0 0.25,0 0.25,0c0,-0.25 0.26903,-0.15433 0.5,-0.25c0.32664,-0.1353 0.50669,-0.44256 0.75,-0.5c0.54406,-0.12844 0.75,-0.25 0.75,-0.25c0.25,-0.25 0.67336,-0.3647 1,-0.5c0.46194,-0.19134 1.27006,-0.07768 2,-0.25c0.54406,-0.12844 1,-0.25 1.25,-0.25c0.25,0 0.5,0 0.5,0c0.25,-0.25 0.5,-0.25 0.5,-0.25c0.25,0 0.5,0 0.75,0c0.25,0 0.25,0 0.5,0c0.25,0 0.51903,0.09567 0.75,0c0.32664,-0.1353 0.5,-0.25 0.5,-0.25c0.25,0 0.25,0 0.5,0c0,0 0.25,0 0.25,0c0.25,0 0.25,0 0.5,0c0,0 0.25,-0.25 0.25,-0.25c0.25,0 0.25,0 0.5,0c0,0 0.25,0 0.25,0c0,0 0.25,0 0.25,0l0,0l0,0" id="svg_123" stroke="#000" fill="none"/>
   <path d="m38.375,12.75c0,0 -0.25,0 -0.5,0c-0.5,0 -1,0 -1.5,0c-0.5,0 -1.25,0 -1.75,0c-0.75,0 -1.55709,-0.28701 -2.25,0c-0.32664,0.1353 -0.8647,0.17336 -1,0.5c-0.09567,0.23097 -0.25,0.25 -0.5,0.5c-0.25,0.25 -0.54327,0.71318 -0.75,1c-0.32686,0.4535 -0.44256,0.75669 -0.5,1c-0.12844,0.54406 -0.44746,0.76961 -0.75,1.5c-0.21393,0.51646 -0.32768,1.27006 -0.5,2c-0.12844,0.54406 -0.25,1 -0.25,1.5c0,0.75 0,1.5 0,2.25c0,1 -0.22026,2.05385 0.25,3.5c0.34575,1.06323 0.68883,2.283 1.25,3.25c0.45243,0.77962 0.8647,0.92336 1,1.25c0.09567,0.23097 0.26903,0.15433 0.5,0.25c0.32664,0.1353 0.25,0.25 0.5,0.25c0.25,0 0.5,0 0.5,0c0.25,0 0.25,0 0.5,0c0.25,0 0.5,0 0.75,-0.25c0.5,-0.5 1.30672,-1.4545 2.5,-3c1.3143,-1.70224 2.7243,-3.90871 3.75,-6.75c0.96787,-2.68109 1.22585,-5.00422 1.5,-6.5c0.22981,-1.25387 0.25,-2 0.25,-2.25c0,-0.25 0,-0.5 0,-0.75c0,-0.25 -0.05744,-0.25669 0,-0.5c0.12844,-0.54406 0.25,-1 0.25,-1.5c0,-0.25 0,-0.5 0,-0.5c0,0 0,-0.25 0,-0.25c0,0.25 0,0.25 0,0.5c0,0.25 0,0.5 0,0.75c0,0.25 -0.25,0.5 -0.25,0.75c0,0.25 0,0.25 0,0.5c0,0.25 -0.12156,0.70594 -0.25,1.25c-0.22975,0.97325 -0.25,2 -0.5,3c-0.25,1 0.03701,1.80709 -0.25,2.5c-0.1353,0.32664 -0.25,0.5 -0.25,1c0,0.5 0,1 0,1.75c0,0.5 0,1.5 0,2.5c0,0.75 0,1.5 0,1.75c0,0.5 0,0.5 0,0.75c0,0 0,0.25 0,0.25c0,0 0.25,0.25 0.25,0.25c0,0.25 -0.17678,0.57322 0,0.75c0.17678,0.17678 0.25,0.25 0.25,0.25c0,0 0,0.25 0,0.25c0,0 0.25,0 0.25,0c0,0.25 0,0.25 0.25,0.25c0,0 0,0 0,0c0.25,0.25 0.25,0.25 0.25,0.25c0,0 0.25,0 0.25,0.25c0,0 0,0 0.25,0.25c0,0 0,0 0.25,0.25c0,0 0,0 0,0c0,0 0,0 0.25,0c0,0 0,0 0,0c0,0 0,0 0,0c0,-0.25 0,-0.25 0,-0.25c0.25,0 0.25,0 0.25,0c0,0 0,0 0.25,0c0,0 0,0 0,0c0.25,0 0.25,0 0.5,0c0,0 0.25,-0.25 0.5,-0.25c0,0 0.01903,0.09567 0.25,0c0.32664,-0.1353 0.81745,-1.20716 1.75,-2.75c1.62039,-2.68083 3.07429,-6.22292 4.5,-10.25c1.31919,-3.72622 1.99756,-6.19756 2.25,-8c0.1387,-0.99033 0.25,-1.75 0.25,-2c0,0 0,-0.25 0,-0.25c0,0 0,-0.25 0,-0.75c0,-0.25 0,-0.5 0,-0.75c0,0 0,-0.25 0,0c0,0 0,0.25 0,0.25c0,0.25 0,0.5 0,0.75c0,0.25 0,0.5 0,0.75c0,0.25 0.08009,0.50646 0,1c-0.12664,0.78036 -0.37336,1.71964 -0.5,2.5c-0.16018,0.98709 -0.25,1.75 -0.25,2.5c0,0.75 0.12014,1.25968 0,2c-0.12664,0.78036 -0.25,1.25 -0.25,1.75c0,0.25 0,0.75 0,1.25c0,0.75 0,1.5 0,2.25c0,0.25 0.07322,0.57322 0.25,0.75c0.17678,0.17678 -0.17678,0.32322 0,0.5c0.17678,0.17678 0.25,0.25 0.25,0.25c0.25,0.25 0.25,0.5 0.25,0.5c0,0.25 0.25,0.5 0.25,0.5c0.25,0.25 0.3647,0.42336 0.5,0.75c0.09567,0.23097 0.15433,0.26903 0.25,0.5c0.1353,0.32664 0.25,0.25 0.25,0.5c0,0 0.25,0 0.25,0c0,0 0,0 0,0c0.25,0.25 0.25,0.25 0.25,0.25c0.25,0 0.17336,0.1147 0.5,0.25c0.23097,0.09567 0.25,0 0.5,0c0,0 0.25,0 0.25,0c0.25,0 0.5,0 0.5,0c0.25,-0.25 0.25,-0.25 0.5,-0.5c0.75,-0.75 1.85017,-1.92606 2.75,-3.25c1.13298,-1.66699 2.12231,-4.72899 2.75,-8.75c0.62173,-3.98289 0.66018,-6.7652 1,-8.5c0.19815,-1.01155 0.5,-1.75 0.25,-1.75c-0.25,0 0,0.25 0,0.25c0,0 0,0.25 0,0.25c0,0.25 0,0.25 0,0.5c0,0.75 0.13981,2.25435 0,4.5c-0.12524,2.01167 -0.37406,3.47695 -0.5,4.5c-0.09164,0.74438 0.09854,1.00487 0,2c-0.25122,2.5371 -0.83888,5.76423 -1.25,9.5c-0.3597,3.2685 -0.87457,5.73449 -1,7.25c-0.1031,1.24574 -0.12336,2.46964 -0.25,3.25c-0.12014,0.74031 -0.02896,1.74096 -0.25,2.5c-0.28819,0.98967 -0.5,1.75 -0.75,2.5c-0.25,0.75 -0.41991,1.50645 -0.5,2c-0.12664,0.78036 -0.75,1.5 -1,2.25c-0.25,0.75 -0.58655,1.17636 -1,1.75c-0.32686,0.4535 -0.5465,0.92314 -1,1.25c-0.28682,0.20673 -0.51903,0.40433 -0.75,0.5c-0.32664,0.1353 -0.53806,0.30866 -1,0.5c-0.32664,0.1353 -0.75,0.25 -1,0.25c-0.5,0 -0.75,0.25 -1.25,0.25c-0.25,0 -0.75669,-0.05744 -1,0c-0.54406,0.12844 -1,0.25 -1.25,0.25c-0.25,0 -0.5,0.25 -0.75,0.25c-0.5,0 -0.75,0 -1,0c0,0 -0.25,0.25 -0.75,0.25c-0.5,0 -1,0 -1.75,0c-0.5,0 -1.14163,-0.03362 -2,-0.75c-0.95969,-0.80093 -1.75,-1.75 -2.5,-2.5l-0.5,-0.5l0,-0.25" id="svg_140" stroke="#000" fill="none"/>
   <polyline stroke-linecap="round" id="svg_141" points="167.875,-2.25 167.875,-2.25 " stroke="#000" fill="none"/>
   <path d="m 83.75 5.5 c 0 0 -0.5 0 -0.5 0 c 0 0 -0.593 -0.1537 -1.5 0.5 c -0.5736 0.4134 -1 1 -1.5 1.5 c -0.5 0.5 -0.5 0.5 -1 1 c -0.5 0.5 -0.5 1 -0.5 1 c 0 0.5 0 1 0 1 c 0 0.5 0 0.5 0 1 c 0 0 0 0 0 0.5 c 0 0.5 0.5 1 1.5 2.5 c 1 1.5 2.5 3 3.75 4.5 c 1 1 1.8467 2.2294 0 3 c -0.75 1 -1 0.5 -2 1 c -1 0.5 -0.9119 0.7431 -2 1 c -0.9732 0.2298 -1.8467 0.2294 -2.5 0.5 c -0.5 0 -0.5 0 -1 0" id="svg_67" stroke="#000" fill="none"/>
  </g>
 </svg>